<svg width="528" height="212" viewBox="0 0 528 212" fill="none" xmlns="http://www.w3.org/2000/svg">
<path d="M108.353 97.7108L70.5368 94.2866L32.7215 97.7108C32.7215 97.7108 11.7869 103.703 12.4625 132.382L21.2407 127.246C21.2407 127.246 14.4886 138.803 21.2407 156.353L29.3441 151.217C29.3441 151.217 36.0971 179.041 55.0057 198.731L57.7065 193.594C57.7065 193.594 61.083 203.439 70.5368 212C79.9907 203.439 83.3671 193.594 83.3671 193.594L86.0689 198.731C104.977 179.041 111.73 151.217 111.73 151.217L119.833 156.353C126.586 138.804 119.833 127.246 119.833 127.246L128.611 132.382C129.287 103.703 108.353 97.7108 108.353 97.7108Z" fill="#EB6C31"/>
<path d="M96.3564 117.593L70.5368 115.255L44.7181 117.593C44.7181 117.593 30.4257 121.684 30.887 141.266L36.8808 137.759C36.8808 137.759 32.2701 145.65 36.8808 157.632L42.4142 154.125C42.4142 154.125 47.0239 173.121 59.9333 186.565L61.7777 183.058C61.7777 183.058 64.0826 189.78 70.5368 195.626C76.991 189.78 79.2977 183.058 79.2977 183.058L81.1412 186.565C94.0506 173.122 98.6612 154.125 98.6612 154.125L104.194 157.632C108.804 145.649 104.194 137.759 104.194 137.759L110.187 141.266C110.648 121.685 96.3564 117.593 96.3564 117.593Z" fill="#FCE6D4"/>
<path d="M122.994 57.2167C122.994 57.2167 135.686 32.6295 102.689 3.37495C102.689 3.37495 104.804 9.30374 102.689 14.778C102.689 14.778 104.381 7.87517 96.7668 0C96.7668 0 104.382 14.9547 93.8045 28.8554C83.2282 42.756 70.9609 52.9257 70.5377 57.2176C70.1145 52.9257 57.8463 42.756 47.2709 28.8554C36.6955 14.9547 44.3086 0 44.3086 0C36.6937 7.87604 38.3865 14.778 38.3865 14.778C36.2714 9.30374 38.3865 3.37495 38.3865 3.37495C5.38894 32.6295 18.0803 57.2167 18.0803 57.2167C2.42837 81.0541 16.3893 97.1385 16.3893 97.1385L54.4626 124.892C56.3924 115.627 70.5377 117.016 70.5377 117.016C70.5377 117.016 84.683 115.627 86.6128 124.892L124.687 97.1385C124.686 97.1385 138.646 81.0541 122.994 57.2167Z" fill="#EB6C31"/>
<path d="M128.81 111.073C128.81 111.073 139.096 102.655 141.075 92.1327C141.075 92.1327 132.767 99.498 129.997 100.55C129.997 100.55 140.679 87.5015 138.701 79.7846C138.701 79.7846 135.198 86.8519 117.732 90.8659C97.2473 95.5736 83.2255 110.447 80.1486 125.452L70.5368 126.971L60.9259 125.452C57.8482 110.447 43.8263 95.5736 23.3412 90.8659C5.87572 86.851 2.37299 79.7846 2.37299 79.7846C0.395044 87.5006 11.0767 100.55 11.0767 100.55C8.30774 99.498 0 92.1327 0 92.1327C1.97795 102.655 12.2645 111.073 12.2645 111.073C4.45719 108.835 2.76894 105.109 2.76894 105.109C2.76894 105.109 2.19863 111.065 11.1493 116.957C17.6135 121.212 23.6055 125.08 48.5169 130.921C55.4488 132.547 61.8204 141.031 70.4551 141.138V141.144C70.4823 141.144 70.5096 141.142 70.5368 141.141C70.5641 141.142 70.5913 141.144 70.6185 141.144V141.138C79.2541 141.032 85.6248 132.547 92.5567 130.921C117.469 125.08 123.46 121.213 129.925 116.957C138.876 111.065 138.305 105.109 138.305 105.109C138.305 105.109 136.616 108.835 128.81 111.073Z" fill="#FCE9DB"/>
<path d="M76.3244 112.105C73.273 112.143 71.5221 113.513 70.5368 115.305C69.5524 113.513 67.8005 112.143 64.7501 112.105C55.7303 111.989 53.6916 121.795 56.1726 125.487C58.6528 129.178 65.6737 130.357 67.4364 129.348C68.9185 128.498 69.9093 127.187 70.5368 126.067C71.1643 127.187 72.1551 128.498 73.6372 129.348C75.3999 130.358 82.4217 129.179 84.9019 125.487C87.382 121.795 85.3442 111.989 76.3244 112.105Z" fill="#FCF3EB"/>
<path d="M79.4312 117.065C79.5302 116.064 79.5892 115.001 79.5892 113.854C79.5892 103.724 72.9616 89.0312 70.5368 89.0312C68.112 89.0312 61.4844 103.724 61.4844 113.854C61.4844 115.001 61.5434 116.065 61.6433 117.065H79.4312Z" fill="#FCF3EB"/>
<path d="M70.5368 113.696C64.2342 113.696 61.3073 116.456 61.3073 116.456C61.3073 116.456 67.5499 124.747 70.5368 124.892C73.5246 124.747 79.7663 116.456 79.7663 116.456C79.7663 116.456 76.8403 113.696 70.5368 113.696Z" fill="#332A24"/>
<path d="M70.5368 115.088C75.9557 115.088 78.9354 116.122 79.7636 116.46L79.7663 116.456C79.7663 116.456 76.8394 113.696 70.5368 113.696C64.2342 113.696 61.3073 116.456 61.3073 116.456L61.3109 116.46C62.1391 116.123 65.1179 115.088 70.5368 115.088Z" fill="#424140"/>
<path d="M97.3299 54.2866C97.3299 54.2866 106.913 48.8044 119.545 54.2866C119.545 54.2866 126.297 28.9864 111.922 21.396C107.161 18.8826 93.1915 38.022 97.3299 54.2866Z" fill="#FCF3EB"/>
<path d="M43.7446 54.2866C43.7446 54.2866 34.1609 48.8044 21.5295 54.2866C21.5295 54.2866 14.7774 28.9864 29.1525 21.396C33.913 18.8826 47.883 38.022 43.7446 54.2866Z" fill="#FCF3EB"/>
<path d="M102.465 18.1582C106.403 18.1582 109.997 16.4853 112.739 13.731C109.985 10.3701 106.672 6.90725 102.689 3.37495C102.689 3.37495 104.804 9.30374 102.689 14.778C102.689 14.778 104.381 7.87517 96.7668 0C96.7668 0 100.816 7.97099 98.8937 17.6826C100.041 17.9903 101.236 18.1582 102.465 18.1582Z" fill="#332A24"/>
<path d="M38.609 18.1582C39.8387 18.1582 41.0338 17.9903 42.1817 17.6826C40.2582 7.97099 44.3086 0 44.3086 0C36.6937 7.87604 38.3865 14.778 38.3865 14.778C36.2715 9.30374 38.3865 3.37495 38.3865 3.37495C34.4025 6.90725 31.0905 10.3701 28.3361 13.731C31.0768 16.4844 34.6704 18.1582 38.609 18.1582Z" fill="#332A24"/>
<path d="M81.7588 92.0044C81.7588 92.0044 86.3904 80.5415 101.126 82.3015C101.126 82.3015 102.067 89.3512 96.7333 92.2514C91.3988 95.1525 81.7588 92.0044 81.7588 92.0044Z" fill="#332A24"/>
<path d="M93.275 91.2185C95.4347 91.2185 97.1855 89.5237 97.1855 87.433C97.1855 85.3423 95.4347 83.6475 93.275 83.6475C91.1153 83.6475 89.3645 85.3423 89.3645 87.433C89.3645 89.5237 91.1153 91.2185 93.275 91.2185Z" fill="#D69A20"/>
<path d="M92.0972 87.7767C92.9664 87.7767 93.671 87.0946 93.671 86.2532C93.671 85.4118 92.9664 84.7297 92.0972 84.7297C91.2279 84.7297 90.5233 85.4118 90.5233 86.2532C90.5233 87.0946 91.2279 87.7767 92.0972 87.7767Z" fill="white"/>
<path d="M59.3166 92.0044C59.3166 92.0044 54.6851 80.5415 39.9486 82.3015C39.9486 82.3015 39.0077 89.3512 44.3422 92.2514C49.6757 95.1525 59.3166 92.0044 59.3166 92.0044Z" fill="#332A24"/>
<path d="M47.7995 91.2185C49.9592 91.2185 51.71 89.5237 51.71 87.433C51.71 85.3423 49.9592 83.6475 47.7995 83.6475C45.6398 83.6475 43.889 85.3423 43.889 87.433C43.889 89.5237 45.6398 91.2185 47.7995 91.2185Z" fill="#D69A20"/>
<path d="M48.9774 87.7767C49.8466 87.7767 50.5512 87.0946 50.5512 86.2532C50.5512 85.4118 49.8466 84.7297 48.9774 84.7297C48.1082 84.7297 47.4035 85.4118 47.4035 86.2532C47.4035 87.0946 48.1082 87.7767 48.9774 87.7767Z" fill="white"/>
<path d="M70.5368 33.3081C61.4471 33.3081 52.6989 38.284 52.9042 46.9917L55.5705 45.4321C55.5705 45.4321 53.5199 48.9415 55.5705 54.2699L58.0307 52.7103C58.0307 52.7103 60.0813 61.1578 65.8217 67.1367L66.6417 65.5772C66.6417 65.5772 67.667 68.5662 70.5368 71.1657C73.4075 68.567 74.4328 65.5772 74.4328 65.5772L75.2519 67.1367C80.9932 61.1587 83.0429 52.7103 83.0429 52.7103L85.504 54.2699C87.5537 48.9415 85.504 45.4321 85.504 45.4321L88.1694 46.9917C88.3746 38.284 79.6265 33.3081 70.5368 33.3081Z" fill="#CF5F2B"/>
<path d="M70.5368 33.3081C61.4471 33.3081 52.6989 38.284 52.9042 46.9917L55.5705 45.4321C55.5705 45.4321 53.5199 48.9415 55.5705 54.2699L58.0307 52.7103C58.0307 52.7103 60.0813 61.1578 65.8217 67.1367L66.6417 65.5772C66.6417 65.5772 67.667 68.5662 70.5368 71.1657C73.4075 68.567 74.4328 65.5772 74.4328 65.5772L75.2519 67.1367C80.9932 61.1587 83.0429 52.7103 83.0429 52.7103L85.504 54.2699C87.5537 48.9415 85.504 45.4321 85.504 45.4321L88.1694 46.9917C88.3746 38.284 79.6265 33.3081 70.5368 33.3081Z" fill="#CF5F2B"/>
<path opacity="0.1" d="M70.8029 33.3081C76.6114 33.3081 82.2674 35.3477 85.5494 39.0875C88.3411 35.9648 91.2644 32.5433 94.0697 28.8554C96.9258 25.1015 98.4479 21.2738 99.1589 17.6818C100.72 9.80132 98.3461 3.06637 97.3962 0.808791C97.3935 0.803517 97.3908 0.797363 97.389 0.792088C97.2482 0.458901 97.1419 0.227692 97.082 0.104615C97.0766 0.0940659 97.0711 0.0808791 97.0666 0.0720879C97.0493 0.0342857 97.0321 0 97.0321 0C97.9838 0.984615 98.7902 1.95341 99.4732 2.89582C100.155 3.83824 100.714 4.75429 101.17 5.63165C101.626 6.50901 101.98 7.34769 102.252 8.13714C103.614 12.08 102.955 14.7745 102.954 14.778C103.747 12.7253 103.946 10.6084 103.883 8.76484C103.852 7.84264 103.756 6.98901 103.637 6.24527C103.358 4.50989 102.954 3.37495 102.954 3.37495C102.992 3.40923 103.029 3.44264 103.067 3.47692C103.532 3.89011 103.989 4.3033 104.436 4.71385C104.685 4.94418 104.926 5.17275 105.17 5.4022C105.395 5.61407 105.626 5.82593 105.847 6.0378C106.174 6.35165 106.492 6.66462 106.81 6.9767C106.935 7.0989 107.063 7.22198 107.185 7.34418C107.547 7.70286 107.897 8.06066 108.245 8.41846C108.317 8.49231 108.392 8.56703 108.464 8.64088C108.844 9.03385 109.214 9.42593 109.578 9.81714C109.611 9.85231 109.645 9.88835 109.678 9.92352C110.066 10.3411 110.444 10.756 110.813 11.171C110.82 11.1789 110.829 11.1877 110.836 11.1956C133.749 36.8818 123.259 57.2167 123.259 57.2167C131.392 69.6018 131.526 79.8857 129.782 86.9169C137.175 83.3925 138.966 79.7846 138.966 79.7846C139.473 81.7635 139.145 84.0914 138.381 86.4615C138.03 90.4448 135.648 95.0637 133.435 98.589C136.905 96.0607 141.34 92.1319 141.34 92.1319C141.085 93.4892 140.689 94.8114 140.196 96.0853C140.427 95.884 140.557 95.7688 140.557 95.7688C139.552 101.115 136.403 105.915 133.547 109.346C137.559 107.311 138.57 105.109 138.57 105.109C138.57 105.109 138.711 106.658 137.674 108.952C137.751 108.824 137.788 108.746 137.788 108.746C137.788 108.746 138.358 114.702 129.408 120.594C128.93 120.909 128.453 121.221 127.973 121.532C128.623 124.731 128.972 128.322 128.876 132.382L120.097 127.245C120.097 127.245 126.85 138.802 120.097 156.353L111.994 151.216C111.994 151.216 105.241 179.04 86.3332 198.73L83.6314 193.593C83.6314 193.593 80.2549 203.438 70.8011 211.999V33.3081H70.8029Z" fill="#5C4337"/>
<path d="M152.333 88.09C149.907 88.09 147.947 87.4367 146.453 86.13C145.007 84.7767 144.283 83.0967 144.283 81.09C144.283 79.0367 145.007 77.3333 146.453 75.98C147.947 74.6267 149.907 73.95 152.333 73.95C154.713 73.95 156.627 74.6267 158.073 75.98C159.567 77.3333 160.313 79.0367 160.313 81.09C160.313 83.0967 159.567 84.7767 158.073 86.13C156.627 87.4367 154.713 88.09 152.333 88.09ZM159.123 91.73V131H145.403V91.73H159.123ZM180.657 98.66C182.197 96.42 184.063 94.6467 186.257 93.34C188.45 92.0333 190.807 91.38 193.327 91.38V106.01H189.477C186.49 106.01 184.273 106.593 182.827 107.76C181.38 108.927 180.657 110.957 180.657 113.85V131H166.937V91.73H180.657V98.66ZM196.005 111.33C196.005 107.27 196.729 103.723 198.175 100.69C199.669 97.6567 201.675 95.3233 204.195 93.69C206.762 92.0567 209.609 91.24 212.735 91.24C215.442 91.24 217.775 91.7767 219.735 92.85C221.695 93.9233 223.212 95.37 224.285 97.19V91.73H238.005V131H224.285V125.54C223.212 127.36 221.672 128.807 219.665 129.88C217.705 130.953 215.395 131.49 212.735 131.49C209.609 131.49 206.762 130.673 204.195 129.04C201.675 127.407 199.669 125.073 198.175 122.04C196.729 118.96 196.005 115.39 196.005 111.33ZM224.285 111.33C224.285 108.81 223.585 106.827 222.185 105.38C220.832 103.933 219.152 103.21 217.145 103.21C215.092 103.21 213.389 103.933 212.035 105.38C210.682 106.78 210.005 108.763 210.005 111.33C210.005 113.85 210.682 115.857 212.035 117.35C213.389 118.797 215.092 119.52 217.145 119.52C219.152 119.52 220.832 118.797 222.185 117.35C223.585 115.903 224.285 113.897 224.285 111.33ZM297.133 91.38C302.08 91.38 305.953 92.8733 308.753 95.86C311.6 98.8467 313.023 102.93 313.023 108.11V131H299.303V109.93C299.303 107.83 298.72 106.197 297.553 105.03C296.387 103.863 294.8 103.28 292.793 103.28C290.787 103.28 289.2 103.863 288.033 105.03C286.867 106.197 286.283 107.83 286.283 109.93V131H272.563V109.93C272.563 107.83 271.98 106.197 270.813 105.03C269.693 103.863 268.13 103.28 266.123 103.28C264.07 103.28 262.46 103.863 261.293 105.03C260.127 106.197 259.543 107.83 259.543 109.93V131H245.823V91.73H259.543V96.91C260.757 95.23 262.32 93.9 264.233 92.92C266.193 91.8933 268.433 91.38 270.953 91.38C273.847 91.38 276.413 92.01 278.653 93.27C280.94 94.53 282.737 96.3033 284.043 98.59C285.443 96.4433 287.287 94.7167 289.573 93.41C291.86 92.0567 294.38 91.38 297.133 91.38ZM334.26 98.66C335.8 96.42 337.667 94.6467 339.86 93.34C342.053 92.0333 344.41 91.38 346.93 91.38V106.01H343.08C340.093 106.01 337.877 106.593 336.43 107.76C334.983 108.927 334.26 110.957 334.26 113.85V131H320.54V91.73H334.26V98.66ZM370.119 131.49C366.199 131.49 362.675 130.673 359.549 129.04C356.469 127.407 354.042 125.073 352.269 122.04C350.495 119.007 349.609 115.437 349.609 111.33C349.609 107.27 350.495 103.723 352.269 100.69C354.089 97.6567 356.539 95.3233 359.619 93.69C362.745 92.0567 366.269 91.24 370.189 91.24C374.109 91.24 377.609 92.0567 380.689 93.69C383.815 95.3233 386.265 97.6567 388.039 100.69C389.859 103.723 390.769 107.27 390.769 111.33C390.769 115.39 389.859 118.96 388.039 122.04C386.265 125.073 383.815 127.407 380.689 129.04C377.562 130.673 374.039 131.49 370.119 131.49ZM370.119 119.59C372.032 119.59 373.619 118.89 374.879 117.49C376.185 116.043 376.839 113.99 376.839 111.33C376.839 108.67 376.185 106.64 374.879 105.24C373.619 103.84 372.055 103.14 370.189 103.14C368.322 103.14 366.759 103.84 365.499 105.24C364.239 106.64 363.609 108.67 363.609 111.33C363.609 114.037 364.215 116.09 365.429 117.49C366.642 118.89 368.205 119.59 370.119 119.59ZM394.111 111.33C394.111 107.27 394.951 103.723 396.631 100.69C398.311 97.6567 400.644 95.3233 403.631 93.69C406.664 92.0567 410.117 91.24 413.991 91.24C418.984 91.24 423.184 92.6167 426.591 95.37C429.997 98.0767 432.191 101.88 433.171 106.78H418.611C417.771 104.213 416.137 102.93 413.711 102.93C411.984 102.93 410.607 103.653 409.581 105.1C408.601 106.5 408.111 108.577 408.111 111.33C408.111 114.083 408.601 116.183 409.581 117.63C410.607 119.077 411.984 119.8 413.711 119.8C416.184 119.8 417.817 118.517 418.611 115.95H433.171C432.191 120.803 429.997 124.607 426.591 127.36C423.184 130.113 418.984 131.49 413.991 131.49C410.117 131.49 406.664 130.673 403.631 129.04C400.644 127.407 398.311 125.073 396.631 122.04C394.951 119.007 394.111 115.437 394.111 111.33ZM464.7 91.38C469.18 91.38 472.727 92.8967 475.34 95.93C478 98.9167 479.33 102.977 479.33 108.11V131H465.61V109.93C465.61 107.69 465.027 105.94 463.86 104.68C462.694 103.373 461.13 102.72 459.17 102.72C457.117 102.72 455.507 103.373 454.34 104.68C453.174 105.94 452.59 107.69 452.59 109.93V131H438.87V79.2H452.59V97.33C453.804 95.5567 455.437 94.1333 457.49 93.06C459.59 91.94 461.994 91.38 464.7 91.38ZM484.618 111.33C484.618 107.27 485.342 103.723 486.788 100.69C488.282 97.6567 490.288 95.3233 492.808 93.69C495.375 92.0567 498.222 91.24 501.348 91.24C504.055 91.24 506.388 91.7767 508.348 92.85C510.308 93.9233 511.825 95.37 512.898 97.19V91.73H526.618V131H512.898V125.54C511.825 127.36 510.285 128.807 508.278 129.88C506.318 130.953 504.008 131.49 501.348 131.49C498.222 131.49 495.375 130.673 492.808 129.04C490.288 127.407 488.282 125.073 486.788 122.04C485.342 118.96 484.618 115.39 484.618 111.33ZM512.898 111.33C512.898 108.81 512.198 106.827 510.798 105.38C509.445 103.933 507.765 103.21 505.758 103.21C503.705 103.21 502.002 103.933 500.648 105.38C499.295 106.78 498.618 108.763 498.618 111.33C498.618 113.85 499.295 115.857 500.648 117.35C502.002 118.797 503.705 119.52 505.758 119.52C507.765 119.52 509.445 118.797 510.798 117.35C512.198 115.903 512.898 113.897 512.898 111.33Z" fill="black"/>
</svg>
