<svg width="812" height="212" viewBox="0 0 812 212" fill="none" xmlns="http://www.w3.org/2000/svg">
<path d="M108.353 97.7108L70.5368 94.2866L32.7215 97.7108C32.7215 97.7108 11.7869 103.703 12.4625 132.382L21.2407 127.246C21.2407 127.246 14.4886 138.803 21.2407 156.353L29.3441 151.217C29.3441 151.217 36.0971 179.041 55.0057 198.731L57.7065 193.594C57.7065 193.594 61.083 203.439 70.5368 212C79.9907 203.439 83.3671 193.594 83.3671 193.594L86.0689 198.731C104.977 179.041 111.73 151.217 111.73 151.217L119.833 156.353C126.586 138.804 119.833 127.246 119.833 127.246L128.611 132.382C129.287 103.703 108.353 97.7108 108.353 97.7108Z" fill="#EB6C31"/>
<path d="M96.3564 117.593L70.5368 115.255L44.7181 117.593C44.7181 117.593 30.4257 121.684 30.887 141.266L36.8808 137.759C36.8808 137.759 32.2701 145.65 36.8808 157.632L42.4142 154.125C42.4142 154.125 47.0239 173.121 59.9333 186.565L61.7777 183.058C61.7777 183.058 64.0826 189.78 70.5368 195.626C76.991 189.78 79.2977 183.058 79.2977 183.058L81.1412 186.565C94.0506 173.122 98.6612 154.125 98.6612 154.125L104.194 157.632C108.804 145.649 104.194 137.759 104.194 137.759L110.187 141.266C110.648 121.685 96.3564 117.593 96.3564 117.593Z" fill="#FCE6D4"/>
<path d="M122.994 57.2167C122.994 57.2167 135.686 32.6295 102.689 3.37495C102.689 3.37495 104.804 9.30374 102.689 14.778C102.689 14.778 104.381 7.87517 96.7668 0C96.7668 0 104.382 14.9547 93.8045 28.8554C83.2282 42.756 70.9609 52.9257 70.5377 57.2176C70.1145 52.9257 57.8463 42.756 47.2709 28.8554C36.6955 14.9547 44.3086 0 44.3086 0C36.6937 7.87604 38.3865 14.778 38.3865 14.778C36.2714 9.30374 38.3865 3.37495 38.3865 3.37495C5.38894 32.6295 18.0803 57.2167 18.0803 57.2167C2.42837 81.0541 16.3893 97.1385 16.3893 97.1385L54.4626 124.892C56.3924 115.627 70.5377 117.016 70.5377 117.016C70.5377 117.016 84.683 115.627 86.6128 124.892L124.687 97.1385C124.686 97.1385 138.646 81.0541 122.994 57.2167Z" fill="#EB6C31"/>
<path d="M128.81 111.073C128.81 111.073 139.096 102.655 141.075 92.1327C141.075 92.1327 132.767 99.498 129.997 100.55C129.997 100.55 140.679 87.5015 138.701 79.7846C138.701 79.7846 135.198 86.8519 117.732 90.8659C97.2473 95.5736 83.2255 110.447 80.1486 125.452L70.5368 126.971L60.9259 125.452C57.8482 110.447 43.8263 95.5736 23.3412 90.8659C5.87572 86.851 2.37299 79.7846 2.37299 79.7846C0.395044 87.5006 11.0767 100.55 11.0767 100.55C8.30774 99.498 0 92.1327 0 92.1327C1.97795 102.655 12.2645 111.073 12.2645 111.073C4.45719 108.835 2.76894 105.109 2.76894 105.109C2.76894 105.109 2.19863 111.065 11.1493 116.957C17.6135 121.212 23.6055 125.08 48.5169 130.921C55.4488 132.547 61.8204 141.031 70.4551 141.138V141.144C70.4823 141.144 70.5096 141.142 70.5368 141.141C70.5641 141.142 70.5913 141.144 70.6185 141.144V141.138C79.2541 141.032 85.6248 132.547 92.5567 130.921C117.469 125.08 123.46 121.213 129.925 116.957C138.876 111.065 138.305 105.109 138.305 105.109C138.305 105.109 136.616 108.835 128.81 111.073Z" fill="#FCE9DB"/>
<path d="M76.3244 112.105C73.273 112.143 71.5221 113.513 70.5368 115.305C69.5524 113.513 67.8005 112.143 64.7501 112.105C55.7303 111.989 53.6916 121.795 56.1726 125.487C58.6528 129.178 65.6737 130.357 67.4364 129.348C68.9185 128.498 69.9093 127.187 70.5368 126.067C71.1643 127.187 72.1551 128.498 73.6372 129.348C75.3999 130.358 82.4217 129.179 84.9019 125.487C87.382 121.795 85.3442 111.989 76.3244 112.105Z" fill="#FCF3EB"/>
<path d="M79.4312 117.065C79.5302 116.064 79.5892 115.001 79.5892 113.854C79.5892 103.724 72.9616 89.0312 70.5368 89.0312C68.112 89.0312 61.4844 103.724 61.4844 113.854C61.4844 115.001 61.5434 116.065 61.6433 117.065H79.4312Z" fill="#FCF3EB"/>
<path d="M70.5368 113.696C64.2342 113.696 61.3073 116.456 61.3073 116.456C61.3073 116.456 67.5499 124.747 70.5368 124.892C73.5246 124.747 79.7663 116.456 79.7663 116.456C79.7663 116.456 76.8403 113.696 70.5368 113.696Z" fill="#332A24"/>
<path d="M70.5368 115.088C75.9557 115.088 78.9354 116.122 79.7636 116.46L79.7663 116.456C79.7663 116.456 76.8394 113.696 70.5368 113.696C64.2342 113.696 61.3073 116.456 61.3073 116.456L61.3109 116.46C62.1391 116.123 65.1179 115.088 70.5368 115.088Z" fill="#424140"/>
<path d="M97.3299 54.2866C97.3299 54.2866 106.913 48.8044 119.545 54.2866C119.545 54.2866 126.297 28.9864 111.922 21.396C107.161 18.8826 93.1915 38.022 97.3299 54.2866Z" fill="#FCF3EB"/>
<path d="M43.7446 54.2866C43.7446 54.2866 34.1609 48.8044 21.5295 54.2866C21.5295 54.2866 14.7774 28.9864 29.1525 21.396C33.913 18.8826 47.883 38.022 43.7446 54.2866Z" fill="#FCF3EB"/>
<path d="M102.465 18.1582C106.403 18.1582 109.997 16.4853 112.739 13.731C109.985 10.3701 106.672 6.90725 102.689 3.37495C102.689 3.37495 104.804 9.30374 102.689 14.778C102.689 14.778 104.381 7.87517 96.7668 0C96.7668 0 100.816 7.97099 98.8937 17.6826C100.041 17.9903 101.236 18.1582 102.465 18.1582Z" fill="#332A24"/>
<path d="M38.609 18.1582C39.8387 18.1582 41.0338 17.9903 42.1817 17.6826C40.2582 7.97099 44.3086 0 44.3086 0C36.6937 7.87604 38.3865 14.778 38.3865 14.778C36.2715 9.30374 38.3865 3.37495 38.3865 3.37495C34.4025 6.90725 31.0905 10.3701 28.3361 13.731C31.0768 16.4844 34.6704 18.1582 38.609 18.1582Z" fill="#332A24"/>
<path d="M81.7588 92.0044C81.7588 92.0044 86.3904 80.5415 101.126 82.3015C101.126 82.3015 102.067 89.3512 96.7333 92.2514C91.3988 95.1525 81.7588 92.0044 81.7588 92.0044Z" fill="#332A24"/>
<path d="M93.275 91.2185C95.4347 91.2185 97.1855 89.5237 97.1855 87.433C97.1855 85.3423 95.4347 83.6475 93.275 83.6475C91.1153 83.6475 89.3645 85.3423 89.3645 87.433C89.3645 89.5237 91.1153 91.2185 93.275 91.2185Z" fill="#D69A20"/>
<path d="M92.0972 87.7767C92.9664 87.7767 93.671 87.0946 93.671 86.2532C93.671 85.4118 92.9664 84.7297 92.0972 84.7297C91.2279 84.7297 90.5233 85.4118 90.5233 86.2532C90.5233 87.0946 91.2279 87.7767 92.0972 87.7767Z" fill="white"/>
<path d="M59.3166 92.0044C59.3166 92.0044 54.6851 80.5415 39.9486 82.3015C39.9486 82.3015 39.0077 89.3512 44.3422 92.2514C49.6757 95.1525 59.3166 92.0044 59.3166 92.0044Z" fill="#332A24"/>
<path d="M47.7995 91.2185C49.9592 91.2185 51.71 89.5237 51.71 87.433C51.71 85.3423 49.9592 83.6475 47.7995 83.6475C45.6398 83.6475 43.889 85.3423 43.889 87.433C43.889 89.5237 45.6398 91.2185 47.7995 91.2185Z" fill="#D69A20"/>
<path d="M48.9774 87.7767C49.8466 87.7767 50.5512 87.0946 50.5512 86.2532C50.5512 85.4118 49.8466 84.7297 48.9774 84.7297C48.1082 84.7297 47.4035 85.4118 47.4035 86.2532C47.4035 87.0946 48.1082 87.7767 48.9774 87.7767Z" fill="white"/>
<path d="M70.5368 33.3081C61.4471 33.3081 52.6989 38.284 52.9042 46.9917L55.5705 45.4321C55.5705 45.4321 53.5199 48.9415 55.5705 54.2699L58.0307 52.7103C58.0307 52.7103 60.0813 61.1578 65.8217 67.1367L66.6417 65.5772C66.6417 65.5772 67.667 68.5662 70.5368 71.1657C73.4075 68.567 74.4328 65.5772 74.4328 65.5772L75.2519 67.1367C80.9932 61.1587 83.0429 52.7103 83.0429 52.7103L85.504 54.2699C87.5537 48.9415 85.504 45.4321 85.504 45.4321L88.1694 46.9917C88.3746 38.284 79.6265 33.3081 70.5368 33.3081Z" fill="#CF5F2B"/>
<path d="M70.5368 33.3081C61.4471 33.3081 52.6989 38.284 52.9042 46.9917L55.5705 45.4321C55.5705 45.4321 53.5199 48.9415 55.5705 54.2699L58.0307 52.7103C58.0307 52.7103 60.0813 61.1578 65.8217 67.1367L66.6417 65.5772C66.6417 65.5772 67.667 68.5662 70.5368 71.1657C73.4075 68.567 74.4328 65.5772 74.4328 65.5772L75.2519 67.1367C80.9932 61.1587 83.0429 52.7103 83.0429 52.7103L85.504 54.2699C87.5537 48.9415 85.504 45.4321 85.504 45.4321L88.1694 46.9917C88.3746 38.284 79.6265 33.3081 70.5368 33.3081Z" fill="#CF5F2B"/>
<path opacity="0.1" d="M70.8029 33.3081C76.6114 33.3081 82.2674 35.3477 85.5494 39.0875C88.3411 35.9648 91.2644 32.5433 94.0697 28.8554C96.9258 25.1015 98.4479 21.2738 99.1589 17.6818C100.72 9.80132 98.3461 3.06637 97.3962 0.808791C97.3935 0.803517 97.3908 0.797363 97.389 0.792088C97.2482 0.458901 97.1419 0.227692 97.082 0.104615C97.0766 0.0940659 97.0711 0.0808791 97.0666 0.0720879C97.0493 0.0342857 97.0321 0 97.0321 0C97.9838 0.984615 98.7902 1.95341 99.4732 2.89582C100.155 3.83824 100.714 4.75429 101.17 5.63165C101.626 6.50901 101.98 7.34769 102.252 8.13714C103.614 12.08 102.955 14.7745 102.954 14.778C103.747 12.7253 103.946 10.6084 103.883 8.76484C103.852 7.84264 103.756 6.98901 103.637 6.24527C103.358 4.50989 102.954 3.37495 102.954 3.37495C102.992 3.40923 103.029 3.44264 103.067 3.47692C103.532 3.89011 103.989 4.3033 104.436 4.71385C104.685 4.94418 104.926 5.17275 105.17 5.4022C105.395 5.61407 105.626 5.82593 105.847 6.0378C106.174 6.35165 106.492 6.66462 106.81 6.9767C106.935 7.0989 107.063 7.22198 107.185 7.34418C107.547 7.70286 107.897 8.06066 108.245 8.41846C108.317 8.49231 108.392 8.56703 108.464 8.64088C108.844 9.03385 109.214 9.42593 109.578 9.81714C109.611 9.85231 109.645 9.88835 109.678 9.92352C110.066 10.3411 110.444 10.756 110.813 11.171C110.82 11.1789 110.829 11.1877 110.836 11.1956C133.749 36.8818 123.259 57.2167 123.259 57.2167C131.392 69.6018 131.526 79.8857 129.782 86.9169C137.175 83.3925 138.966 79.7846 138.966 79.7846C139.473 81.7635 139.145 84.0914 138.381 86.4615C138.03 90.4448 135.648 95.0637 133.435 98.589C136.905 96.0607 141.34 92.1319 141.34 92.1319C141.085 93.4892 140.689 94.8114 140.196 96.0853C140.427 95.884 140.557 95.7688 140.557 95.7688C139.552 101.115 136.403 105.915 133.547 109.346C137.559 107.311 138.57 105.109 138.57 105.109C138.57 105.109 138.711 106.658 137.674 108.952C137.751 108.824 137.788 108.746 137.788 108.746C137.788 108.746 138.358 114.702 129.408 120.594C128.93 120.909 128.453 121.221 127.973 121.532C128.623 124.731 128.972 128.322 128.876 132.382L120.097 127.245C120.097 127.245 126.85 138.802 120.097 156.353L111.994 151.216C111.994 151.216 105.241 179.04 86.3332 198.73L83.6314 193.593C83.6314 193.593 80.2549 203.438 70.8011 211.999V33.3081H70.8029Z" fill="#5C4337"/>
<path d="M173.097 72.6974C169.008 72.6974 165.705 71.5966 163.189 69.3949C160.751 67.1145 159.532 64.2837 159.532 60.9025C159.532 57.4427 160.751 54.5726 163.189 52.2923C165.705 50.012 169.008 48.8718 173.097 48.8718C177.107 48.8718 180.331 50.012 182.768 52.2923C185.285 54.5726 186.543 57.4427 186.543 60.9025C186.543 64.2837 185.285 67.1145 182.768 69.3949C180.331 71.5966 177.107 72.6974 173.097 72.6974ZM184.538 78.8308V145H161.42V78.8308H184.538ZM220.821 90.5077C223.415 86.7333 226.561 83.7453 230.257 81.5436C233.952 79.3419 237.923 78.241 242.169 78.241V102.892H235.682C230.65 102.892 226.915 103.875 224.477 105.841C222.039 107.807 220.821 111.227 220.821 116.103V145H197.703V78.8308H220.821V90.5077ZM246.683 111.856C246.683 105.015 247.902 99.0393 250.339 93.9282C252.855 88.8171 256.237 84.8855 260.483 82.1333C264.808 79.3812 269.604 78.0051 274.872 78.0051C279.433 78.0051 283.365 78.9094 286.667 80.7179C289.97 82.5265 292.525 84.9641 294.334 88.0308V78.8308H317.452V145H294.334V135.8C292.525 138.867 289.931 141.304 286.549 143.113C283.247 144.921 279.355 145.826 274.872 145.826C269.604 145.826 264.808 144.45 260.483 141.697C256.237 138.945 252.855 135.014 250.339 129.903C247.902 124.713 246.683 118.697 246.683 111.856ZM294.334 111.856C294.334 107.61 293.155 104.268 290.796 101.831C288.515 99.3932 285.684 98.1744 282.303 98.1744C278.843 98.1744 275.973 99.3932 273.693 101.831C271.413 104.19 270.272 107.532 270.272 111.856C270.272 116.103 271.413 119.484 273.693 122C275.973 124.438 278.843 125.656 282.303 125.656C285.684 125.656 288.515 124.438 290.796 122C293.155 119.562 294.334 116.181 294.334 111.856ZM417.082 78.241C425.417 78.241 431.943 80.7573 436.661 85.7897C441.458 90.8222 443.856 97.7026 443.856 106.431V145H420.738V109.497C420.738 105.959 419.755 103.207 417.789 101.241C415.824 99.2752 413.15 98.2923 409.769 98.2923C406.388 98.2923 403.714 99.2752 401.748 101.241C399.783 103.207 398.8 105.959 398.8 109.497V145H375.682V109.497C375.682 105.959 374.699 103.207 372.733 101.241C370.846 99.2752 368.212 98.2923 364.83 98.2923C361.371 98.2923 358.658 99.2752 356.692 101.241C354.726 103.207 353.743 105.959 353.743 109.497V145H330.625V78.8308H353.743V87.559C355.788 84.7282 358.422 82.4872 361.646 80.8359C364.948 79.106 368.723 78.241 372.969 78.241C377.844 78.241 382.169 79.3026 385.943 81.4256C389.796 83.5487 392.824 86.5367 395.025 90.3897C397.384 86.7726 400.49 83.8632 404.343 81.6615C408.196 79.3812 412.442 78.241 417.082 78.241ZM479.64 90.5077C482.235 86.7333 485.38 83.7453 489.076 81.5436C492.771 79.3419 496.742 78.241 500.988 78.241V102.892H494.501C489.469 102.892 485.734 103.875 483.296 105.841C480.859 107.807 479.64 111.227 479.64 116.103V145H456.522V78.8308H479.64V90.5077ZM540.061 145.826C533.456 145.826 527.519 144.45 522.251 141.697C517.061 138.945 512.972 135.014 509.984 129.903C506.996 124.791 505.502 118.776 505.502 111.856C505.502 105.015 506.996 99.0393 509.984 93.9282C513.051 88.8171 517.179 84.8855 522.369 82.1333C527.637 79.3812 533.574 78.0051 540.179 78.0051C546.784 78.0051 552.681 79.3812 557.871 82.1333C563.139 84.8855 567.268 88.8171 570.256 93.9282C573.322 99.0393 574.856 105.015 574.856 111.856C574.856 118.697 573.322 124.713 570.256 129.903C567.268 135.014 563.139 138.945 557.871 141.697C552.603 144.45 546.666 145.826 540.061 145.826ZM540.061 125.774C543.285 125.774 545.958 124.595 548.081 122.236C550.283 119.798 551.384 116.338 551.384 111.856C551.384 107.374 550.283 103.954 548.081 101.595C545.958 99.2359 543.324 98.0564 540.179 98.0564C537.033 98.0564 534.399 99.2359 532.276 101.595C530.153 103.954 529.092 107.374 529.092 111.856C529.092 116.417 530.114 119.877 532.158 122.236C534.203 124.595 536.837 125.774 540.061 125.774ZM580.487 111.856C580.487 105.015 581.902 99.0393 584.733 93.9282C587.564 88.8171 591.495 84.8855 596.528 82.1333C601.639 79.3812 607.458 78.0051 613.984 78.0051C622.398 78.0051 629.475 80.3248 635.215 84.9641C640.955 89.5248 644.651 95.9333 646.302 104.19H621.769C620.354 99.865 617.601 97.7026 613.512 97.7026C610.603 97.7026 608.283 98.9214 606.554 101.359C604.902 103.718 604.077 107.217 604.077 111.856C604.077 116.496 604.902 120.034 606.554 122.472C608.283 124.909 610.603 126.128 613.512 126.128C617.68 126.128 620.432 123.966 621.769 119.641H646.302C644.651 127.819 640.955 134.227 635.215 138.867C629.475 143.506 622.398 145.826 613.984 145.826C607.458 145.826 601.639 144.45 596.528 141.697C591.495 138.945 587.564 135.014 584.733 129.903C581.902 124.791 580.487 118.776 580.487 111.856ZM699.429 78.241C706.978 78.241 712.954 80.7966 717.357 85.9077C721.839 90.9402 724.08 97.7812 724.08 106.431V145H700.962V109.497C700.962 105.723 699.979 102.774 698.014 100.651C696.048 98.4496 693.414 97.3487 690.111 97.3487C686.651 97.3487 683.938 98.4496 681.973 100.651C680.007 102.774 679.024 105.723 679.024 109.497V145H655.906V57.7179H679.024V88.2667C681.068 85.2786 683.82 82.8803 687.28 81.0718C690.819 79.1846 694.868 78.241 699.429 78.241ZM732.991 111.856C732.991 105.015 734.21 99.0393 736.647 93.9282C739.163 88.8171 742.545 84.8855 746.791 82.1333C751.116 79.3812 755.912 78.0051 761.181 78.0051C765.741 78.0051 769.673 78.9094 772.975 80.7179C776.278 82.5265 778.834 84.9641 780.642 88.0308V78.8308H803.76V145H780.642V135.8C778.834 138.867 776.239 141.304 772.857 143.113C769.555 144.921 765.663 145.826 761.181 145.826C755.912 145.826 751.116 144.45 746.791 141.697C742.545 138.945 739.163 135.014 736.647 129.903C734.21 124.713 732.991 118.697 732.991 111.856ZM780.642 111.856C780.642 107.61 779.463 104.268 777.104 101.831C774.823 99.3932 771.993 98.1744 768.611 98.1744C765.151 98.1744 762.281 99.3932 760.001 101.831C757.721 104.19 756.581 107.532 756.581 111.856C756.581 116.103 757.721 119.484 760.001 122C762.281 124.438 765.151 125.656 768.611 125.656C771.993 125.656 774.823 124.438 777.104 122C779.463 119.562 780.642 116.181 780.642 111.856Z" fill="#FFFCFC"/>
</svg>
